<?xml version="1.0" encoding="utf-8"?>
<!-- Generator: Adobe Illustrator 19.0.0, SVG Export Plug-In . SVG Version: 6.00 Build 0)  -->
<svg version="1.1" id="Layer_1" xmlns="http://www.w3.org/2000/svg" xmlns:xlink="http://www.w3.org/1999/xlink" x="0px" y="0px"
	 viewBox="0 0 112.2 113.4" style="enable-background:new 0 0 112.2 113.4;" xml:space="preserve">
<style type="text/css">
	.st0{fill:#8BCCF0;}
	.st1{fill:#FFF37B;}
</style>
<g id="XMLID_66_">
	<path id="path1948_1_" class="st0" d="M55.4,0.5c-4.6,0-9,0.4-12.8,1.1c-11.3,2-13.4,6.2-13.4,13.9v10.2H56v3.4H29.2H19.1
		c-7.8,0-14.6,4.7-16.8,13.6C-0.1,53-0.2,59.3,2.4,70c1.9,7.9,6.5,13.6,14.3,13.6h9.2V71.4c0-8.8,7.7-16.7,16.8-16.7h26.8
		c7.5,0,13.4-6.1,13.4-13.6V15.5c0-7.3-6.1-12.7-13.4-13.9C64.8,0.8,60,0.5,55.4,0.5z M40.9,8.7c2.8,0,5,2.3,5,5.1
		c0,2.8-2.3,5.1-5,5.1c-2.8,0-5-2.3-5-5.1C35.9,11,38.1,8.7,40.9,8.7z"/>
	<path id="path1950_1_" class="st1" d="M86.1,29.2v11.9c0,9.2-7.8,17-16.8,17H42.6c-7.3,0-13.4,6.3-13.4,13.6v25.5
		c0,7.3,6.3,11.5,13.4,13.6c8.5,2.5,16.6,2.9,26.8,0c6.8-2,13.4-5.9,13.4-13.6V87H56v-3.4h26.8h13.4c7.8,0,10.7-5.4,13.4-13.6
		c2.8-8.4,2.7-16.5,0-27.2c-1.9-7.8-5.6-13.6-13.4-13.6H86.1z M71.1,93.8c2.8,0,5,2.3,5,5.1c0,2.8-2.3,5.1-5,5.1c-2.8,0-5-2.3-5-5.1
		C66,96.1,68.3,93.8,71.1,93.8z"/>
</g>
</svg>
